<?xml version="1.0" encoding="utf-8"?>
<!-- Generator: Adobe Illustrator 16.0.0, SVG Export Plug-In . SVG Version: 6.00 Build 0)  -->
<!DOCTYPE svg PUBLIC "-//W3C//DTD SVG 1.1//EN" "http://www.w3.org/Graphics/SVG/1.1/DTD/svg11.dtd">
<svg version="1.1" id="Layer_1" xmlns="http://www.w3.org/2000/svg" xmlns:xlink="http://www.w3.org/1999/xlink" x="0px" y="0px"
	 width="400px" height="400px" viewBox="0 0 400 400" enable-background="new 0 0 400 400" xml:space="preserve">
<g>
	<rect fill="#FFFFFF" width="400" height="400"/>
	<path d="M26,26v349h348V26H26z M238.559,243.478c-4.083,1.609-7.34,2.838-9.773,3.683c-2.433,0.846-5.257,1.269-8.473,1.269
		c-4.907,0-8.731-1.227-11.474-3.682c-2.743-2.455-4.113-5.498-4.113-9.129c0-1.155,0.052-2.435,0.155-3.838
		c0.103-1.401,0.462-3.32,1.077-5.755l4.427-16.463c0.45-1.773,0.79-3.373,1.018-4.797c0.226-1.424,0.34-2.589,0.34-3.497
		c0-1.98-0.474-3.527-1.421-4.642c-0.948-1.114-2.555-1.671-4.819-1.671c-1.4,0-3.397,0.548-5.992,1.641s-5.498,2.937-8.709,5.907
		L180.534,247h-20.453l18.211-78.598c0.164-0.701,0.288-1.267,0.371-1.886c0.083-0.618,0.124-1.086,0.124-1.5
		c0-1.485-0.248-2.638-0.743-3.504c-0.496-0.867-1.24-1.557-2.231-2.093c-0.992-0.536-2.128-0.901-3.408-1.108
		c-1.281-0.206-2.769-0.389-4.463-0.554l1.112-4.579l32.591-1.609l0.68,0.796L192.425,195h0.434c3.839-3,7.823-5.839,11.952-7.758
		s8.566-2.781,13.314-2.781c4.582,0,8.163,1.308,10.743,3.824c2.58,2.518,3.871,5.595,3.871,9.184c0,0.95-0.072,2.292-0.217,4.005
		c-0.145,1.713-0.485,3.544-1.021,5.483l-4.707,17.394c-0.413,1.445-0.784,3.096-1.114,4.952c-0.331,1.857-0.495,3.262-0.495,4.21
		c0,2.394,0.525,4.045,1.578,4.952c1.052,0.908,2.898,1.361,5.541,1.361c1.237,0,2.641-0.217,4.209-0.649
		c1.568-0.434,2.703-0.814,3.405-1.146L238.559,243.478z"/>
</g>
</svg>
