<?xml version="1.0" encoding="utf-8"?>
<!-- Generator: Adobe Illustrator 18.0.0, SVG Export Plug-In . SVG Version: 6.00 Build 0)  -->
<!DOCTYPE svg PUBLIC "-//W3C//DTD SVG 1.1//EN" "http://www.w3.org/Graphics/SVG/1.1/DTD/svg11.dtd">
<svg version="1.1" id="Layer_1" xmlns="http://www.w3.org/2000/svg" xmlns:xlink="http://www.w3.org/1999/xlink" x="0px" y="0px"
	 viewBox="0 0 36 30.4" enable-background="new 0 0 36 30.4" xml:space="preserve">
<g>
	<path fill="#333333" d="M31.8,0H4.2C1.9,0,0,1.9,0,4.2v22c0,2.3,1.9,4.2,4.2,4.2h27.6c2.3,0,4.2-1.9,4.2-4.2v-22
		C36,1.9,34.1,0,31.8,0z M33,26.3c0,0.8-0.6,1.4-1.4,1.4H4.2c-0.8,0-1.4-0.6-1.4-1.4V7.2H33V26.3z"/>
	<path fill="#333333" d="M9.1,21.4c0.5,0.5,1,0.9,1.6,1.2s1.2,0.5,1.8,0.6v-0.6c-0.9-0.2-1.5-0.7-2-1.7c-0.5-1-0.7-2.3-0.7-4.1
		c0-1.8,0.2-3.1,0.7-4.1c0.5-0.9,1.1-1.5,2-1.7v-0.6c-0.6,0.1-1.2,0.3-1.8,0.6c-0.6,0.3-1.1,0.7-1.6,1.2c-0.5,0.5-0.9,1.2-1.1,1.9
		c-0.3,0.8-0.4,1.7-0.4,2.7c0,1,0.1,1.9,0.4,2.7C8.3,20.2,8.7,20.8,9.1,21.4z"/>
	<path fill="#333333" d="M14.2,21.1c0.4,0,0.8-0.1,1.1-0.4c0.3-0.3,0.7-0.7,1.1-1.3c0.1-0.2,0.2-0.4,0.3-0.5
		c0.1-0.1,0.2-0.3,0.3-0.5c0.1,0.2,0.1,0.4,0.2,0.6c0.1,0.2,0.1,0.5,0.2,0.7c0.1,0.3,0.2,0.5,0.3,0.7s0.3,0.3,0.5,0.4
		c0.2,0.1,0.4,0.2,0.6,0.2s0.4,0.1,0.6,0.1c0.3,0,0.6,0,1-0.1c0.4-0.1,0.8-0.3,1.4-0.5l0.2-0.7c-0.1,0.1-0.3,0.1-0.5,0.2
		S21.1,20,21,20c-0.4,0-0.6-0.1-0.8-0.2c-0.2-0.2-0.3-0.4-0.4-0.6c-0.1-0.3-0.2-0.7-0.3-1s-0.3-0.9-0.5-1.7c0.2-0.3,0.4-0.5,0.5-0.7
		s0.3-0.3,0.4-0.4c0.2,0.1,0.4,0.1,0.6,0.2c0.2,0.1,0.5,0.1,0.7,0.1c0.4,0,0.8-0.1,1.1-0.4c0.3-0.3,0.4-0.6,0.4-1.1
		c0-0.3-0.1-0.6-0.3-0.8S21.9,13,21.6,13c-0.4,0-0.8,0.1-1.1,0.4s-0.7,0.7-1.1,1.4c-0.1,0.1-0.2,0.3-0.3,0.5
		c-0.1,0.2-0.2,0.3-0.3,0.5c0-0.2-0.1-0.4-0.1-0.6s-0.1-0.4-0.2-0.6c-0.1-0.3-0.2-0.5-0.3-0.7s-0.3-0.3-0.5-0.4
		c-0.2-0.1-0.4-0.2-0.6-0.2S16.7,13,16.4,13c-0.3,0-0.6,0.1-1.1,0.2s-0.9,0.3-1.3,0.5l-0.2,0.7c0.1,0,0.3-0.1,0.5-0.2
		c0.2-0.1,0.4-0.1,0.5-0.1c0.4,0,0.6,0.1,0.8,0.2c0.2,0.2,0.3,0.4,0.4,0.6c0.1,0.3,0.2,0.7,0.3,1.1c0.1,0.4,0.3,0.9,0.4,1.6
		c-0.2,0.3-0.4,0.5-0.5,0.7S16,18.6,16,18.7c-0.2-0.1-0.4-0.1-0.6-0.2s-0.5-0.1-0.7-0.1c-0.4,0-0.8,0.1-1.1,0.4s-0.4,0.6-0.4,1.1
		c0,0.3,0.1,0.6,0.3,0.8C13.7,21,13.9,21.1,14.2,21.1z"/>
	<path fill="#333333" d="M26.7,21.4c0.5-0.5,0.9-1.2,1.1-1.9c0.3-0.8,0.4-1.7,0.4-2.7c0-1-0.1-1.9-0.4-2.7c-0.3-0.8-0.7-1.4-1.1-1.9
		c-0.5-0.5-1-0.9-1.6-1.2c-0.6-0.3-1.2-0.5-1.8-0.6V11c0.9,0.2,1.5,0.7,2,1.7c0.5,1,0.7,2.3,0.7,4.1c0,1.8-0.2,3.1-0.7,4.1
		c-0.5,0.9-1.1,1.5-2,1.7v0.6c0.6-0.1,1.2-0.3,1.8-0.6C25.7,22.3,26.3,21.9,26.7,21.4z"/>
</g>
</svg>
