<?xml version="1.0" encoding="utf-8"?>
<!-- Generator: Adobe Illustrator 16.0.0, SVG Export Plug-In . SVG Version: 6.00 Build 0)  -->
<!DOCTYPE svg PUBLIC "-//W3C//DTD SVG 1.1//EN" "http://www.w3.org/Graphics/SVG/1.1/DTD/svg11.dtd">
<svg version="1.1" id="Layer_1" xmlns:sketch="http://www.bohemiancoding.com/sketch/ns"
	 xmlns="http://www.w3.org/2000/svg" xmlns:xlink="http://www.w3.org/1999/xlink" x="0px" y="0px" width="39px" height="34px"
	 viewBox="-1.5 -1.5 39 34" enable-background="new -1.5 -1.5 39 34" xml:space="preserve">
<title>Untitled 6</title>
<description>Created with Sketch (http://www.bohemiancoding.com/sketch)</description>
<g id="Page-1" sketch:type="MSPage">
	<path fill="#333333" d="M32,32.5H4c-3.033,0-5.5-2.468-5.5-5.5V4c0-3.033,2.467-5.5,5.5-5.5h28c3.032,0,5.5,2.467,5.5,5.5v23
		C37.5,30.032,35.032,32.5,32,32.5z M4,1.5C2.622,1.5,1.5,2.622,1.5,4v23c0,1.379,1.122,2.5,2.5,2.5h28c1.379,0,2.5-1.121,2.5-2.5V4
		c0-1.378-1.121-2.5-2.5-2.5H4z"/>
	<g>
		<path id="css" sketch:type="MSShapeGroup" fill="#333333" d="M15.765,14.448c-0.149-0.213-0.373-0.392-0.672-0.536
			s-0.603-0.216-0.912-0.216c-0.352,0-0.661,0.072-0.928,0.216s-0.488,0.333-0.664,0.568s-0.307,0.499-0.392,0.792
			c-0.086,0.293-0.128,0.589-0.128,0.888s0.045,0.595,0.136,0.888c0.091,0.294,0.227,0.558,0.408,0.792
			c0.181,0.234,0.407,0.424,0.68,0.568c0.272,0.144,0.589,0.216,0.952,0.216c0.299,0,0.598-0.059,0.896-0.176
			c0.299-0.118,0.539-0.288,0.721-0.513l1.199,1.217c-0.319,0.341-0.728,0.605-1.224,0.791c-0.496,0.188-1.032,0.281-1.608,0.281
			c-0.564,0-1.101-0.092-1.607-0.272c-0.507-0.182-0.949-0.448-1.328-0.8c-0.379-0.353-0.678-0.779-0.896-1.28
			c-0.219-0.501-0.328-1.072-0.328-1.712c0-0.619,0.109-1.179,0.328-1.68c0.218-0.501,0.515-0.928,0.888-1.28
			c0.373-0.352,0.808-0.624,1.304-0.816c0.496-0.192,1.026-0.288,1.592-0.288s1.112,0.106,1.641,0.32
			c0.527,0.213,0.946,0.507,1.256,0.88L15.765,14.448z M22.533,14.368c-0.17-0.224-0.405-0.419-0.704-0.584
			c-0.298-0.166-0.624-0.248-0.976-0.248c-0.31,0-0.592,0.064-0.848,0.192c-0.257,0.128-0.385,0.341-0.385,0.64
			c0,0.298,0.142,0.509,0.424,0.632c0.283,0.123,0.696,0.248,1.24,0.376c0.288,0.064,0.578,0.149,0.872,0.256
			c0.294,0.107,0.56,0.248,0.8,0.425c0.24,0.176,0.436,0.395,0.584,0.655c0.149,0.261,0.225,0.579,0.225,0.952
			c0,0.469-0.088,0.867-0.264,1.191c-0.177,0.326-0.412,0.59-0.705,0.793c-0.293,0.202-0.635,0.349-1.023,0.439
			c-0.39,0.091-0.792,0.137-1.208,0.137c-0.598,0-1.179-0.109-1.744-0.328s-1.035-0.531-1.408-0.937l1.264-1.185
			c0.214,0.277,0.491,0.508,0.832,0.688c0.342,0.182,0.72,0.272,1.136,0.272c0.139,0,0.281-0.017,0.425-0.049
			c0.144-0.031,0.277-0.082,0.399-0.151c0.123-0.069,0.222-0.163,0.297-0.28c0.074-0.117,0.111-0.262,0.111-0.432
			c0-0.32-0.146-0.55-0.439-0.688s-0.733-0.277-1.32-0.416c-0.288-0.063-0.568-0.146-0.84-0.247c-0.272-0.102-0.515-0.235-0.729-0.4
			c-0.213-0.166-0.384-0.371-0.512-0.616s-0.192-0.549-0.192-0.912c0-0.427,0.088-0.794,0.265-1.104
			c0.176-0.309,0.407-0.562,0.695-0.76c0.288-0.198,0.613-0.344,0.977-0.44c0.363-0.096,0.736-0.144,1.12-0.144
			c0.555,0,1.096,0.096,1.624,0.288c0.527,0.192,0.946,0.485,1.256,0.88L22.533,14.368z M29.637,14.368
			c-0.17-0.224-0.404-0.419-0.703-0.584c-0.299-0.166-0.625-0.248-0.977-0.248c-0.309,0-0.592,0.064-0.848,0.192
			s-0.385,0.341-0.385,0.64c0,0.298,0.143,0.509,0.425,0.632s0.696,0.248,1.239,0.376c0.289,0.064,0.579,0.149,0.873,0.256
			c0.293,0.107,0.56,0.248,0.799,0.425c0.24,0.176,0.436,0.395,0.584,0.655c0.15,0.261,0.225,0.579,0.225,0.952
			c0,0.469-0.088,0.867-0.264,1.191c-0.176,0.326-0.411,0.59-0.704,0.793c-0.294,0.202-0.635,0.349-1.024,0.439
			c-0.389,0.091-0.791,0.137-1.207,0.137c-0.598,0-1.18-0.109-1.744-0.328c-0.566-0.219-1.035-0.531-1.408-0.937l1.264-1.185
			c0.213,0.277,0.49,0.508,0.832,0.688c0.342,0.182,0.72,0.272,1.136,0.272c0.139,0,0.28-0.017,0.425-0.049
			c0.144-0.031,0.277-0.082,0.399-0.151s0.222-0.163,0.296-0.28s0.112-0.262,0.112-0.432c0-0.32-0.147-0.55-0.44-0.688
			s-0.732-0.277-1.32-0.416c-0.287-0.063-0.567-0.146-0.84-0.247c-0.271-0.102-0.514-0.235-0.728-0.4
			c-0.214-0.166-0.384-0.371-0.513-0.616c-0.127-0.245-0.191-0.549-0.191-0.912c0-0.427,0.088-0.794,0.264-1.104
			c0.176-0.309,0.408-0.562,0.696-0.76c0.288-0.198,0.613-0.344,0.976-0.44c0.363-0.096,0.736-0.144,1.121-0.144
			c0.555,0,1.096,0.096,1.623,0.288c0.528,0.192,0.947,0.485,1.256,0.88L29.637,14.368z"/>
		<circle fill="#333333" cx="6.915" cy="18.425" r="1.8"/>
	</g>
</g>
</svg>
