<?xml version="1.0" encoding="utf-8"?>
<!-- Generator: Adobe Illustrator 16.0.0, SVG Export Plug-In . SVG Version: 6.00 Build 0)  -->
<!DOCTYPE svg PUBLIC "-//W3C//DTD SVG 1.1//EN" "http://www.w3.org/Graphics/SVG/1.1/DTD/svg11.dtd">
<svg version="1.1" id="Layer_1" xmlns:sketch="http://www.bohemiancoding.com/sketch/ns"
	 xmlns="http://www.w3.org/2000/svg" xmlns:xlink="http://www.w3.org/1999/xlink" x="0px" y="0px" width="39px" height="34.951px"
	 viewBox="-1.5 -1.451 39 34.951" enable-background="new -1.5 -1.451 39 34.951" xml:space="preserve">
<title>Untitled 7</title>
<description>Created with Sketch (http://www.bohemiancoding.com/sketch)</description>
<g id="Page-1" sketch:type="MSPage">
	<path fill="#333333" d="M32.01,33.5H3.99c-3.027,0-5.49-2.47-5.49-5.506V10.005c0-1.967,1.02-3.739,2.66-4.722
		c1.165-6.059,5.028-6.735,6.686-6.735h8.256c2.623,0,5.502,0.737,7.256,5.951h8.652c3.027,0,5.49,2.47,5.49,5.505v17.989
		C37.5,31.03,35.037,33.5,32.01,33.5z M7.845,1.549c-2.084,0-3.378,1.664-3.847,4.946L3.875,7.354L3.069,7.675
		C2.116,8.056,1.5,8.971,1.5,10.005v17.989c0,1.382,1.117,2.506,2.49,2.506h28.02c1.373,0,2.49-1.124,2.49-2.506V10.005
		c0-1.381-1.117-2.505-2.49-2.505H21.102L20.8,6.396c-1.329-4.848-3.197-4.848-4.699-4.848H7.845z"/>
	<path id="sass" sketch:type="MSShapeGroup" fill="#333333" d="M9.69,17.072c-0.149-0.196-0.354-0.367-0.616-0.512
		c-0.262-0.144-0.546-0.217-0.854-0.217c-0.271,0-0.518,0.056-0.742,0.168c-0.224,0.112-0.336,0.299-0.336,0.561
		s0.124,0.445,0.371,0.553c0.247,0.107,0.609,0.217,1.085,0.329c0.252,0.056,0.506,0.13,0.763,0.224
		c0.257,0.094,0.49,0.217,0.7,0.371s0.38,0.346,0.511,0.574c0.131,0.229,0.196,0.506,0.196,0.833c0,0.411-0.077,0.759-0.231,1.043
		c-0.154,0.284-0.359,0.516-0.616,0.692c-0.256,0.178-0.555,0.307-0.896,0.386c-0.34,0.079-0.693,0.118-1.057,0.118
		c-0.522,0-1.031-0.095-1.526-0.286S5.537,21.445,5.21,21.09l1.106-1.035c0.187,0.242,0.429,0.442,0.728,0.602
		c0.299,0.158,0.63,0.238,0.994,0.238c0.121,0,0.245-0.015,0.371-0.043c0.126-0.027,0.243-0.072,0.35-0.133
		c0.107-0.061,0.194-0.143,0.259-0.244c0.065-0.104,0.098-0.229,0.098-0.379c0-0.279-0.128-0.48-0.385-0.602
		s-0.642-0.242-1.155-0.364c-0.252-0.056-0.497-0.128-0.735-0.217c-0.238-0.089-0.45-0.206-0.637-0.351
		c-0.187-0.145-0.336-0.324-0.448-0.539c-0.112-0.214-0.168-0.48-0.168-0.797c0-0.374,0.077-0.695,0.231-0.967
		c0.154-0.271,0.357-0.492,0.609-0.665c0.252-0.172,0.537-0.301,0.854-0.385c0.317-0.084,0.644-0.126,0.98-0.126
		c0.485,0,0.959,0.084,1.421,0.252s0.828,0.425,1.099,0.77L9.69,17.072z M16.396,21.146h-0.042
		c-0.168,0.299-0.438,0.543-0.812,0.734s-0.798,0.287-1.274,0.287c-0.271,0-0.553-0.035-0.847-0.105
		c-0.294-0.069-0.564-0.186-0.812-0.35c-0.247-0.163-0.453-0.378-0.616-0.645c-0.164-0.266-0.245-0.594-0.245-0.986
		c0-0.504,0.142-0.905,0.427-1.204s0.651-0.527,1.099-0.687c0.448-0.158,0.945-0.264,1.491-0.314s1.08-0.077,1.603-0.077v-0.168
		c0-0.42-0.152-0.729-0.455-0.931S15.248,16.4,14.828,16.4c-0.355,0-0.695,0.075-1.022,0.224s-0.598,0.331-0.812,0.546l-0.868-1.022
		c0.383-0.354,0.824-0.621,1.323-0.798c0.499-0.177,1.005-0.266,1.519-0.266c0.598,0,1.09,0.084,1.477,0.252
		c0.388,0.168,0.693,0.387,0.917,0.658c0.224,0.271,0.38,0.574,0.469,0.91c0.088,0.336,0.133,0.672,0.133,1.008V22h-1.568V21.146z
		 M16.368,18.934H15.99c-0.271,0-0.556,0.012-0.854,0.035c-0.299,0.023-0.574,0.074-0.826,0.154
		c-0.252,0.079-0.462,0.191-0.63,0.336s-0.252,0.343-0.252,0.596c0,0.158,0.035,0.291,0.105,0.398
		c0.07,0.107,0.161,0.193,0.273,0.259c0.112,0.065,0.238,0.112,0.378,0.14c0.14,0.028,0.28,0.043,0.42,0.043
		c0.579,0,1.017-0.154,1.316-0.463c0.299-0.308,0.448-0.728,0.448-1.26V18.934z M23.605,17.072
		c-0.148-0.196-0.354-0.367-0.615-0.512c-0.262-0.144-0.547-0.217-0.854-0.217c-0.271,0-0.519,0.056-0.742,0.168
		c-0.225,0.112-0.336,0.299-0.336,0.561s0.123,0.445,0.371,0.553c0.246,0.107,0.608,0.217,1.084,0.329
		c0.252,0.056,0.507,0.13,0.764,0.224c0.256,0.094,0.49,0.217,0.699,0.371c0.211,0.154,0.381,0.346,0.512,0.574
		s0.195,0.506,0.195,0.833c0,0.411-0.076,0.759-0.23,1.043s-0.359,0.516-0.616,0.692c-0.257,0.178-0.556,0.307-0.896,0.386
		c-0.342,0.079-0.693,0.118-1.058,0.118c-0.522,0-1.031-0.095-1.526-0.286c-0.494-0.191-0.904-0.464-1.231-0.819l1.106-1.035
		c0.186,0.242,0.429,0.442,0.728,0.602c0.299,0.158,0.63,0.238,0.994,0.238c0.121,0,0.245-0.015,0.371-0.043
		c0.126-0.027,0.243-0.072,0.35-0.133c0.107-0.061,0.194-0.143,0.259-0.244c0.066-0.104,0.099-0.229,0.099-0.379
		c0-0.279-0.128-0.48-0.386-0.602c-0.256-0.121-0.641-0.242-1.154-0.364c-0.252-0.056-0.497-0.128-0.735-0.217
		c-0.237-0.089-0.45-0.206-0.637-0.351s-0.336-0.324-0.448-0.539c-0.111-0.214-0.168-0.48-0.168-0.797
		c0-0.374,0.077-0.695,0.23-0.967c0.154-0.271,0.357-0.492,0.609-0.665c0.252-0.172,0.537-0.301,0.854-0.385
		s0.644-0.126,0.979-0.126c0.486,0,0.959,0.084,1.422,0.252c0.461,0.168,0.828,0.425,1.099,0.77L23.605,17.072z M29.822,17.072
		c-0.149-0.196-0.355-0.367-0.616-0.512c-0.261-0.144-0.546-0.217-0.854-0.217c-0.27,0-0.518,0.056-0.742,0.168
		c-0.223,0.112-0.336,0.299-0.336,0.561s0.124,0.445,0.371,0.553c0.248,0.107,0.609,0.217,1.086,0.329
		c0.252,0.056,0.506,0.13,0.763,0.224s0.489,0.217,0.7,0.371c0.209,0.154,0.38,0.346,0.511,0.574
		c0.13,0.229,0.196,0.506,0.196,0.833c0,0.411-0.077,0.759-0.231,1.043c-0.153,0.284-0.359,0.516-0.616,0.692
		c-0.256,0.178-0.555,0.307-0.896,0.386s-0.693,0.118-1.058,0.118c-0.522,0-1.031-0.095-1.525-0.286
		c-0.495-0.191-0.906-0.464-1.232-0.819l1.106-1.035c0.187,0.242,0.429,0.442,0.728,0.602c0.299,0.158,0.631,0.238,0.994,0.238
		c0.121,0,0.245-0.015,0.371-0.043c0.126-0.027,0.242-0.072,0.35-0.133s0.193-0.143,0.26-0.244c0.064-0.104,0.098-0.229,0.098-0.379
		c0-0.279-0.129-0.48-0.385-0.602c-0.257-0.121-0.643-0.242-1.155-0.364c-0.252-0.056-0.497-0.128-0.735-0.217
		s-0.45-0.206-0.637-0.351S26,18.238,25.889,18.023c-0.113-0.214-0.168-0.48-0.168-0.797c0-0.374,0.076-0.695,0.23-0.967
		c0.154-0.271,0.357-0.492,0.609-0.665c0.252-0.172,0.536-0.301,0.854-0.385s0.645-0.126,0.98-0.126c0.484,0,0.959,0.084,1.42,0.252
		c0.463,0.168,0.829,0.425,1.1,0.77L29.822,17.072z"/>
</g>
</svg>
