<?xml version="1.0" encoding="utf-8"?>
<!-- Generator: Adobe Illustrator 18.0.0, SVG Export Plug-In . SVG Version: 6.00 Build 0)  -->
<!DOCTYPE svg PUBLIC "-//W3C//DTD SVG 1.1//EN" "http://www.w3.org/Graphics/SVG/1.1/DTD/svg11.dtd">
<svg version="1.1" id="Layer_1" xmlns="http://www.w3.org/2000/svg" xmlns:xlink="http://www.w3.org/1999/xlink" x="0px" y="0px"
	 viewBox="0 0 32 24.9" enable-background="new 0 0 32 24.9" xml:space="preserve">
<path fill="#333333" d="M24,21.7H3.2V7.3h4.1c0,0,1.1-1.4,3.5-3.2H1.6C0.7,4.2,0,4.9,0,5.8v17.6c0,0.9,0.7,1.6,1.6,1.6h24
	c0.9,0,1.6-0.7,1.6-1.6v-6L24,20V21.7z M21.3,10.6v5.7L32,8L21.3,0v5C8.5,5,8.5,17.7,8.5,17.7C12.1,11.7,14.4,10.6,21.3,10.6
	L21.3,10.6z M21.3,10.6"/>
</svg>
